<mxfile host="Electron" agent="Mozilla/5.0 (X11; Linux x86_64) AppleWebKit/537.36 (KHTML, like Gecko) draw.io/26.0.16 Chrome/132.0.6834.196 Electron/34.2.0 Safari/537.36" version="26.0.16">
  <diagram name="topology" id="EFl9gPI-ifyG1F3owPOe">
    <mxGraphModel dx="1728" dy="996" grid="1" gridSize="10" guides="1" tooltips="1" connect="1" arrows="1" fold="1" page="1" pageScale="1" pageWidth="850" pageHeight="1100" math="0" shadow="0">
      <root>
        <mxCell id="0" />
        <mxCell id="1" parent="0" />
        <mxCell id="rIrtPUxKBsClz7UrobYS-190" value="Pin headers:&lt;br&gt;&lt;b&gt;&lt;font&gt;Communication&lt;/font&gt;&lt;/b&gt;" style="rounded=0;whiteSpace=wrap;html=1;align=right;spacingLeft=8;fontSize=9;fillColor=#f5f5f5;fontColor=#333333;strokeColor=#666666;spacingRight=8;" vertex="1" parent="1">
          <mxGeometry x="2000" y="230" width="130" height="40" as="geometry" />
        </mxCell>
        <mxCell id="rIrtPUxKBsClz7UrobYS-175" value="Pin headers:&lt;br&gt;&lt;b&gt;Power Outputs&lt;/b&gt;" style="rounded=0;whiteSpace=wrap;html=1;align=right;spacingLeft=8;fontSize=9;fillColor=#f5f5f5;fontColor=#333333;strokeColor=#666666;spacingRight=8;" vertex="1" parent="1">
          <mxGeometry x="2000" y="290" width="130" height="220" as="geometry" />
        </mxCell>
        <mxCell id="rIrtPUxKBsClz7UrobYS-7" value="&lt;b&gt;USB-PD Sink&lt;/b&gt;&lt;div&gt;&lt;b&gt;Controller&lt;/b&gt;&lt;br&gt;&lt;br&gt;HUSB238&lt;/div&gt;" style="rounded=0;whiteSpace=wrap;html=1;fontSize=10;fillColor=#dae8fc;strokeColor=#6c8ebf;verticalAlign=bottom;" vertex="1" parent="1">
          <mxGeometry x="280" y="240" width="160" height="80" as="geometry" />
        </mxCell>
        <mxCell id="rIrtPUxKBsClz7UrobYS-8" value="&lt;div&gt;&lt;b&gt;&lt;u&gt;&lt;font style=&quot;font-size: 7px;&quot;&gt;[BC1]&lt;/font&gt;&lt;/u&gt;&lt;/b&gt;&lt;/div&gt;&lt;b&gt;Battery Charger&lt;br&gt;&amp;amp; Power Path&lt;/b&gt;&lt;br&gt;&lt;br&gt;BQ25672" style="rounded=0;whiteSpace=wrap;html=1;fontSize=8;fillColor=#f8cecc;strokeColor=#b85450;verticalAlign=bottom;spacingBottom=5;" vertex="1" parent="1">
          <mxGeometry x="960" y="410" width="160" height="80" as="geometry" />
        </mxCell>
        <mxCell id="rIrtPUxKBsClz7UrobYS-9" value="&lt;b&gt;USB&lt;/b&gt;&lt;div&gt;&lt;b&gt;Connector&lt;/b&gt;&lt;/div&gt;" style="rounded=0;whiteSpace=wrap;html=1;align=left;spacingLeft=8;fillColor=#f5f5f5;fontColor=#333333;strokeColor=#666666;" vertex="1" parent="1">
          <mxGeometry x="80" y="230" width="120" height="100" as="geometry" />
        </mxCell>
        <mxCell id="rIrtPUxKBsClz7UrobYS-14" style="edgeStyle=orthogonalEdgeStyle;rounded=0;orthogonalLoop=1;jettySize=auto;html=1;exitX=1;exitY=0.5;exitDx=0;exitDy=0;entryX=0;entryY=0.5;entryDx=0;entryDy=0;strokeWidth=3;strokeColor=#CC0000;" edge="1" parent="1" source="rIrtPUxKBsClz7UrobYS-29" target="rIrtPUxKBsClz7UrobYS-15">
          <mxGeometry relative="1" as="geometry" />
        </mxCell>
        <mxCell id="rIrtPUxKBsClz7UrobYS-10" value="VUSB" style="rounded=0;whiteSpace=wrap;html=1;fontSize=8;fillColor=#E6E6E6;fontColor=#333333;strokeColor=#666666;" vertex="1" parent="1">
          <mxGeometry x="160" y="240" width="40" height="20" as="geometry" />
        </mxCell>
        <mxCell id="rIrtPUxKBsClz7UrobYS-22" style="edgeStyle=orthogonalEdgeStyle;rounded=0;orthogonalLoop=1;jettySize=auto;html=1;exitX=1;exitY=0.5;exitDx=0;exitDy=0;entryX=0;entryY=0.5;entryDx=0;entryDy=0;strokeColor=#000066;" edge="1" parent="1" source="rIrtPUxKBsClz7UrobYS-55" target="rIrtPUxKBsClz7UrobYS-21">
          <mxGeometry relative="1" as="geometry" />
        </mxCell>
        <mxCell id="rIrtPUxKBsClz7UrobYS-11" value="D+/D-" style="rounded=0;whiteSpace=wrap;html=1;fontSize=8;fillColor=#E6E6E6;fontColor=#333333;strokeColor=#666666;" vertex="1" parent="1">
          <mxGeometry x="160" y="300" width="40" height="20" as="geometry" />
        </mxCell>
        <mxCell id="rIrtPUxKBsClz7UrobYS-24" style="edgeStyle=orthogonalEdgeStyle;rounded=0;orthogonalLoop=1;jettySize=auto;html=1;exitX=1;exitY=0.5;exitDx=0;exitDy=0;entryX=0;entryY=0.5;entryDx=0;entryDy=0;strokeColor=#000066;" edge="1" parent="1" source="rIrtPUxKBsClz7UrobYS-12" target="rIrtPUxKBsClz7UrobYS-16">
          <mxGeometry relative="1" as="geometry" />
        </mxCell>
        <mxCell id="rIrtPUxKBsClz7UrobYS-12" value="CC1/CC2" style="rounded=0;whiteSpace=wrap;html=1;fontSize=7;fillColor=#E6E6E6;fontColor=#333333;strokeColor=#666666;" vertex="1" parent="1">
          <mxGeometry x="160" y="270" width="40" height="20" as="geometry" />
        </mxCell>
        <mxCell id="rIrtPUxKBsClz7UrobYS-15" value="VIN" style="rounded=0;whiteSpace=wrap;html=1;fontSize=8;fillColor=#99CCFF;strokeColor=#6c8ebf;" vertex="1" parent="1">
          <mxGeometry x="280" y="240" width="40" height="20" as="geometry" />
        </mxCell>
        <mxCell id="rIrtPUxKBsClz7UrobYS-16" value="CC1/CC2" style="rounded=0;whiteSpace=wrap;html=1;fontSize=7;fillColor=#99CCFF;strokeColor=#6c8ebf;" vertex="1" parent="1">
          <mxGeometry x="280" y="270" width="40" height="20" as="geometry" />
        </mxCell>
        <mxCell id="rIrtPUxKBsClz7UrobYS-17" value="&lt;b&gt;VUSB&lt;br&gt;&lt;/b&gt;&lt;div&gt;&lt;b&gt;Switch&lt;/b&gt;&lt;/div&gt;" style="rounded=0;whiteSpace=wrap;html=1;fontSize=10;fillColor=#fad7ac;strokeColor=#b46504;" vertex="1" parent="1">
          <mxGeometry x="280" y="330" width="160" height="40" as="geometry" />
        </mxCell>
        <mxCell id="rIrtPUxKBsClz7UrobYS-18" value="VIN" style="rounded=0;whiteSpace=wrap;html=1;fontSize=8;fillColor=#FF9933;strokeColor=#b46504;" vertex="1" parent="1">
          <mxGeometry x="280" y="330" width="40" height="20" as="geometry" />
        </mxCell>
        <mxCell id="rIrtPUxKBsClz7UrobYS-19" value="VOUT" style="rounded=0;whiteSpace=wrap;html=1;fontSize=8;fillColor=#FF9933;strokeColor=#b46504;" vertex="1" parent="1">
          <mxGeometry x="400" y="350" width="40" height="20" as="geometry" />
        </mxCell>
        <mxCell id="rIrtPUxKBsClz7UrobYS-51" style="edgeStyle=orthogonalEdgeStyle;rounded=1;orthogonalLoop=1;jettySize=auto;html=1;exitX=0.5;exitY=1;exitDx=0;exitDy=0;entryX=0;entryY=0.5;entryDx=0;entryDy=0;curved=0;strokeColor=#CC0000;strokeWidth=3;" edge="1" parent="1" source="rIrtPUxKBsClz7UrobYS-235" target="rIrtPUxKBsClz7UrobYS-40">
          <mxGeometry relative="1" as="geometry" />
        </mxCell>
        <mxCell id="rIrtPUxKBsClz7UrobYS-20" value="Enable" style="rounded=0;whiteSpace=wrap;html=1;fontSize=8;fillColor=#FF9933;strokeColor=#b46504;" vertex="1" parent="1">
          <mxGeometry x="400" y="330" width="40" height="20" as="geometry" />
        </mxCell>
        <mxCell id="rIrtPUxKBsClz7UrobYS-21" value="D+/D-" style="rounded=0;whiteSpace=wrap;html=1;fontSize=8;fillColor=#99CCFF;strokeColor=#6c8ebf;" vertex="1" parent="1">
          <mxGeometry x="280" y="300" width="40" height="20" as="geometry" />
        </mxCell>
        <mxCell id="rIrtPUxKBsClz7UrobYS-25" value="VUSB&lt;div&gt;Enable&lt;/div&gt;" style="rounded=0;whiteSpace=wrap;html=1;fontSize=7;fillColor=#99CCFF;strokeColor=#6c8ebf;" vertex="1" parent="1">
          <mxGeometry x="400" y="300" width="40" height="20" as="geometry" />
        </mxCell>
        <mxCell id="rIrtPUxKBsClz7UrobYS-30" value="" style="edgeStyle=orthogonalEdgeStyle;rounded=0;orthogonalLoop=1;jettySize=auto;html=1;exitX=1;exitY=0.5;exitDx=0;exitDy=0;entryX=0;entryY=0.5;entryDx=0;entryDy=0;endArrow=none;startFill=0;strokeWidth=3;strokeColor=#CC0000;" edge="1" parent="1" source="rIrtPUxKBsClz7UrobYS-10" target="rIrtPUxKBsClz7UrobYS-29">
          <mxGeometry relative="1" as="geometry">
            <mxPoint x="200" y="250" as="sourcePoint" />
            <mxPoint x="280" y="250" as="targetPoint" />
          </mxGeometry>
        </mxCell>
        <mxCell id="rIrtPUxKBsClz7UrobYS-29" value="" style="ellipse;whiteSpace=wrap;html=1;aspect=fixed;labelBackgroundColor=none;fillColor=#CC0000;strokeColor=#CC0000;" vertex="1" parent="1">
          <mxGeometry x="220" y="245" width="10" height="10" as="geometry" />
        </mxCell>
        <mxCell id="rIrtPUxKBsClz7UrobYS-33" value="USB&lt;br&gt;D+/D-" style="rounded=0;whiteSpace=wrap;html=1;fontSize=7;fillColor=#FF9999;strokeColor=#b85450;" vertex="1" parent="1">
          <mxGeometry x="960" y="450" width="40" height="20" as="geometry" />
        </mxCell>
        <mxCell id="rIrtPUxKBsClz7UrobYS-39" value="&lt;b&gt;&lt;u&gt;[BC3]&lt;/u&gt;&lt;/b&gt;&lt;div&gt;&lt;b&gt;&lt;font style=&quot;font-size: 8px;&quot;&gt;Power Path&lt;br&gt;Source&lt;br&gt;Selector&lt;/font&gt;&lt;/b&gt;&lt;/div&gt;" style="rounded=0;whiteSpace=wrap;html=1;fontSize=7;fillColor=#fad7ac;strokeColor=#b46504;" vertex="1" parent="1">
          <mxGeometry x="480" y="410" width="160" height="40" as="geometry" />
        </mxCell>
        <mxCell id="rIrtPUxKBsClz7UrobYS-40" value="VIN1" style="rounded=0;whiteSpace=wrap;html=1;fontSize=8;fillColor=#FF9933;strokeColor=#b46504;" vertex="1" parent="1">
          <mxGeometry x="480" y="410" width="40" height="20" as="geometry" />
        </mxCell>
        <mxCell id="rIrtPUxKBsClz7UrobYS-41" value="Selection" style="rounded=0;whiteSpace=wrap;html=1;fontSize=8;fillColor=#FF9933;strokeColor=#b46504;" vertex="1" parent="1">
          <mxGeometry x="600" y="430" width="40" height="20" as="geometry" />
        </mxCell>
        <mxCell id="rIrtPUxKBsClz7UrobYS-49" style="edgeStyle=orthogonalEdgeStyle;rounded=0;orthogonalLoop=1;jettySize=auto;html=1;entryX=0;entryY=0.5;entryDx=0;entryDy=0;strokeColor=#CC0000;strokeWidth=3;exitX=1;exitY=0.5;exitDx=0;exitDy=0;" edge="1" parent="1" source="rIrtPUxKBsClz7UrobYS-167" target="rIrtPUxKBsClz7UrobYS-44">
          <mxGeometry relative="1" as="geometry">
            <mxPoint x="935" y="420" as="sourcePoint" />
          </mxGeometry>
        </mxCell>
        <mxCell id="rIrtPUxKBsClz7UrobYS-42" value="VOUT" style="rounded=0;whiteSpace=wrap;html=1;fontSize=8;fillColor=#FF9933;strokeColor=#b46504;" vertex="1" parent="1">
          <mxGeometry x="600" y="410" width="40" height="20" as="geometry" />
        </mxCell>
        <mxCell id="rIrtPUxKBsClz7UrobYS-43" value="VIN2" style="rounded=0;whiteSpace=wrap;html=1;fontSize=8;fillColor=#FF9933;strokeColor=#b46504;" vertex="1" parent="1">
          <mxGeometry x="480" y="430" width="40" height="20" as="geometry" />
        </mxCell>
        <mxCell id="rIrtPUxKBsClz7UrobYS-44" value="VBUS" style="rounded=0;whiteSpace=wrap;html=1;fontSize=8;fillColor=#FF9999;strokeColor=#b85450;" vertex="1" parent="1">
          <mxGeometry x="960" y="410" width="40" height="20" as="geometry" />
        </mxCell>
        <mxCell id="rIrtPUxKBsClz7UrobYS-48" style="edgeStyle=orthogonalEdgeStyle;rounded=0;orthogonalLoop=1;jettySize=auto;html=1;exitX=0;exitY=0.5;exitDx=0;exitDy=0;entryX=1;entryY=0.5;entryDx=0;entryDy=0;strokeColor=#000066;" edge="1" parent="1" source="rIrtPUxKBsClz7UrobYS-46" target="rIrtPUxKBsClz7UrobYS-41">
          <mxGeometry relative="1" as="geometry" />
        </mxCell>
        <mxCell id="rIrtPUxKBsClz7UrobYS-46" value="VBUS&lt;br&gt;Selection" style="rounded=0;whiteSpace=wrap;html=1;fontSize=7;fillColor=#FF9999;strokeColor=#b85450;" vertex="1" parent="1">
          <mxGeometry x="960" y="430" width="40" height="20" as="geometry" />
        </mxCell>
        <mxCell id="rIrtPUxKBsClz7UrobYS-52" value="Pin headers:&lt;br&gt;&lt;b&gt;Power&lt;/b&gt;&lt;div&gt;&lt;b&gt;Sources&lt;/b&gt;&lt;/div&gt;" style="rounded=0;whiteSpace=wrap;html=1;align=left;spacingLeft=8;fontSize=11;fillColor=#f5f5f5;fontColor=#333333;strokeColor=#666666;" vertex="1" parent="1">
          <mxGeometry x="80" y="420" width="120" height="270" as="geometry" />
        </mxCell>
        <mxCell id="rIrtPUxKBsClz7UrobYS-54" style="edgeStyle=orthogonalEdgeStyle;rounded=1;orthogonalLoop=1;jettySize=auto;html=1;exitX=1;exitY=0.5;exitDx=0;exitDy=0;entryX=0;entryY=0.5;entryDx=0;entryDy=0;curved=0;strokeWidth=3;strokeColor=#CC0000;" edge="1" parent="1" source="rIrtPUxKBsClz7UrobYS-53" target="rIrtPUxKBsClz7UrobYS-43">
          <mxGeometry relative="1" as="geometry" />
        </mxCell>
        <mxCell id="rIrtPUxKBsClz7UrobYS-53" value="VEXT" style="rounded=0;whiteSpace=wrap;html=1;fontSize=8;fillColor=#E6E6E6;fontColor=#333333;strokeColor=#666666;" vertex="1" parent="1">
          <mxGeometry x="160" y="430" width="40" height="20" as="geometry" />
        </mxCell>
        <mxCell id="rIrtPUxKBsClz7UrobYS-56" value="" style="edgeStyle=orthogonalEdgeStyle;rounded=0;orthogonalLoop=1;jettySize=auto;html=1;exitX=1;exitY=0.5;exitDx=0;exitDy=0;entryX=0;entryY=0.5;entryDx=0;entryDy=0;endArrow=none;startFill=0;strokeColor=#000066;" edge="1" parent="1" source="rIrtPUxKBsClz7UrobYS-11" target="rIrtPUxKBsClz7UrobYS-55">
          <mxGeometry relative="1" as="geometry">
            <mxPoint x="200" y="310" as="sourcePoint" />
            <mxPoint x="280" y="310" as="targetPoint" />
          </mxGeometry>
        </mxCell>
        <mxCell id="rIrtPUxKBsClz7UrobYS-55" value="" style="ellipse;whiteSpace=wrap;html=1;aspect=fixed;labelBackgroundColor=none;fillColor=#000066;strokeColor=#000066;" vertex="1" parent="1">
          <mxGeometry x="240" y="305" width="10" height="10" as="geometry" />
        </mxCell>
        <mxCell id="rIrtPUxKBsClz7UrobYS-101" style="edgeStyle=orthogonalEdgeStyle;rounded=0;orthogonalLoop=1;jettySize=auto;html=1;exitX=1;exitY=0.5;exitDx=0;exitDy=0;entryX=0;entryY=0.5;entryDx=0;entryDy=0;strokeWidth=3;strokeColor=#CC0000;endArrow=none;startFill=0;" edge="1" parent="1" source="rIrtPUxKBsClz7UrobYS-116" target="rIrtPUxKBsClz7UrobYS-107">
          <mxGeometry relative="1" as="geometry">
            <mxPoint x="1210" y="440" as="sourcePoint" />
            <mxPoint x="1210" y="436.8000000000002" as="targetPoint" />
            <Array as="points" />
          </mxGeometry>
        </mxCell>
        <mxCell id="rIrtPUxKBsClz7UrobYS-60" value="VSYS" style="rounded=0;whiteSpace=wrap;html=1;fontSize=8;fillColor=#FF9999;strokeColor=#b85450;" vertex="1" parent="1">
          <mxGeometry x="1080" y="430" width="40" height="20" as="geometry" />
        </mxCell>
        <mxCell id="rIrtPUxKBsClz7UrobYS-166" style="edgeStyle=orthogonalEdgeStyle;rounded=0;orthogonalLoop=1;jettySize=auto;html=1;exitX=1;exitY=0.5;exitDx=0;exitDy=0;entryX=0;entryY=0.5;entryDx=0;entryDy=0;strokeWidth=3;strokeColor=#CC0000;" edge="1" parent="1" source="rIrtPUxKBsClz7UrobYS-61" target="rIrtPUxKBsClz7UrobYS-163">
          <mxGeometry relative="1" as="geometry" />
        </mxCell>
        <mxCell id="rIrtPUxKBsClz7UrobYS-203" value="&lt;span style=&quot;color: rgb(204, 0, 0); font-weight: 700;&quot;&gt;2.5-20V @ 5A Max&lt;/span&gt;&lt;br style=&quot;color: rgb(204, 0, 0); font-weight: 700;&quot;&gt;&lt;span style=&quot;color: rgb(204, 0, 0); font-weight: 700;&quot;&gt;(VBUS, VEXT or OTG)&lt;/span&gt;" style="edgeLabel;html=1;align=center;verticalAlign=middle;resizable=0;points=[];fontSize=9;labelBackgroundColor=none;" vertex="1" connectable="0" parent="rIrtPUxKBsClz7UrobYS-166">
          <mxGeometry x="0.8265" y="2" relative="1" as="geometry">
            <mxPoint x="8" y="-13" as="offset" />
          </mxGeometry>
        </mxCell>
        <mxCell id="rIrtPUxKBsClz7UrobYS-61" value="PMID" style="rounded=0;whiteSpace=wrap;html=1;fontSize=8;fillColor=#FF9999;strokeColor=#b85450;" vertex="1" parent="1">
          <mxGeometry x="1080" y="410" width="40" height="20" as="geometry" />
        </mxCell>
        <mxCell id="rIrtPUxKBsClz7UrobYS-63" value="VBAT" style="rounded=0;whiteSpace=wrap;html=1;fontSize=8;fillColor=#FF9999;strokeColor=#b85450;" vertex="1" parent="1">
          <mxGeometry x="960" y="470" width="40" height="20" as="geometry" />
        </mxCell>
        <mxCell id="rIrtPUxKBsClz7UrobYS-64" value="VBAT&lt;br&gt;Ship Mode" style="rounded=0;whiteSpace=wrap;html=1;fontSize=7;fillColor=#FF9999;strokeColor=#b85450;" vertex="1" parent="1">
          <mxGeometry x="1080" y="470" width="40" height="20" as="geometry" />
        </mxCell>
        <mxCell id="rIrtPUxKBsClz7UrobYS-65" value="&lt;div&gt;&lt;b&gt;[&lt;u&gt;BC1&lt;/u&gt;]&lt;/b&gt;&lt;/div&gt;&lt;b&gt;VBAT Ship Mode&lt;br&gt;Switch&lt;/b&gt;" style="rounded=0;whiteSpace=wrap;html=1;fontSize=9;fillColor=#fad7ac;strokeColor=#b46504;" vertex="1" parent="1">
          <mxGeometry x="480" y="470" width="160" height="40" as="geometry" />
        </mxCell>
        <mxCell id="rIrtPUxKBsClz7UrobYS-66" value="VIN" style="rounded=0;whiteSpace=wrap;html=1;fontSize=8;fillColor=#FF9933;strokeColor=#b46504;" vertex="1" parent="1">
          <mxGeometry x="480" y="470" width="40" height="20" as="geometry" />
        </mxCell>
        <mxCell id="rIrtPUxKBsClz7UrobYS-67" value="Enable" style="rounded=0;whiteSpace=wrap;html=1;fontSize=8;fillColor=#FF9933;strokeColor=#b46504;" vertex="1" parent="1">
          <mxGeometry x="600" y="490" width="40" height="20" as="geometry" />
        </mxCell>
        <mxCell id="rIrtPUxKBsClz7UrobYS-71" style="edgeStyle=orthogonalEdgeStyle;rounded=0;orthogonalLoop=1;jettySize=auto;html=1;exitX=1;exitY=0.5;exitDx=0;exitDy=0;entryX=0;entryY=0.5;entryDx=0;entryDy=0;strokeWidth=3;strokeColor=#CC0000;" edge="1" parent="1" source="rIrtPUxKBsClz7UrobYS-68" target="rIrtPUxKBsClz7UrobYS-178">
          <mxGeometry relative="1" as="geometry" />
        </mxCell>
        <mxCell id="rIrtPUxKBsClz7UrobYS-68" value="VOUT" style="rounded=0;whiteSpace=wrap;html=1;fontSize=8;fillColor=#FF9933;strokeColor=#b46504;" vertex="1" parent="1">
          <mxGeometry x="600" y="470" width="40" height="20" as="geometry" />
        </mxCell>
        <mxCell id="rIrtPUxKBsClz7UrobYS-73" style="edgeStyle=orthogonalEdgeStyle;rounded=1;orthogonalLoop=1;jettySize=auto;html=1;exitX=1;exitY=0.5;exitDx=0;exitDy=0;curved=0;entryX=0;entryY=0.5;entryDx=0;entryDy=0;strokeWidth=3;strokeColor=#CC0000;" edge="1" parent="1" source="rIrtPUxKBsClz7UrobYS-72" target="rIrtPUxKBsClz7UrobYS-76">
          <mxGeometry relative="1" as="geometry">
            <mxPoint x="250" y="490" as="targetPoint" />
          </mxGeometry>
        </mxCell>
        <mxCell id="rIrtPUxKBsClz7UrobYS-72" value="VBAT" style="rounded=0;whiteSpace=wrap;html=1;fontSize=8;fillColor=#E6E6E6;fontColor=#333333;strokeColor=#666666;" vertex="1" parent="1">
          <mxGeometry x="160" y="470" width="40" height="20" as="geometry" />
        </mxCell>
        <mxCell id="rIrtPUxKBsClz7UrobYS-75" value="&lt;b&gt;[&lt;u&gt;BC1&lt;/u&gt;]&amp;nbsp;&lt;/b&gt;&lt;div&gt;&lt;b&gt;Reverse Voltage&lt;/b&gt;&lt;br&gt;&lt;b&gt;Protection&lt;/b&gt;&lt;br&gt;(High-side)&lt;/div&gt;" style="rounded=0;whiteSpace=wrap;html=1;fontSize=9;fillColor=#fad7ac;strokeColor=#b46504;" vertex="1" parent="1">
          <mxGeometry x="280" y="470" width="160" height="50" as="geometry" />
        </mxCell>
        <mxCell id="rIrtPUxKBsClz7UrobYS-76" value="VIN" style="rounded=0;whiteSpace=wrap;html=1;fontSize=8;fillColor=#FF9933;strokeColor=#b46504;" vertex="1" parent="1">
          <mxGeometry x="280" y="470" width="40" height="20" as="geometry" />
        </mxCell>
        <mxCell id="rIrtPUxKBsClz7UrobYS-79" style="edgeStyle=orthogonalEdgeStyle;rounded=0;orthogonalLoop=1;jettySize=auto;html=1;exitX=1;exitY=0.5;exitDx=0;exitDy=0;entryX=0;entryY=0.5;entryDx=0;entryDy=0;strokeWidth=3;strokeColor=#CC0000;" edge="1" parent="1" source="rIrtPUxKBsClz7UrobYS-78" target="rIrtPUxKBsClz7UrobYS-66">
          <mxGeometry relative="1" as="geometry" />
        </mxCell>
        <mxCell id="rIrtPUxKBsClz7UrobYS-78" value="VOUT" style="rounded=0;whiteSpace=wrap;html=1;fontSize=8;fillColor=#FF9933;strokeColor=#b46504;" vertex="1" parent="1">
          <mxGeometry x="400" y="470" width="40" height="20" as="geometry" />
        </mxCell>
        <mxCell id="rIrtPUxKBsClz7UrobYS-80" value="&lt;b&gt;&lt;font&gt;Buck-boost&lt;/font&gt;&lt;/b&gt;&lt;div&gt;&lt;b&gt;&lt;font&gt;Regulator&lt;/font&gt;&lt;/b&gt;&lt;br&gt;TPS63070&lt;/div&gt;" style="rounded=0;whiteSpace=wrap;html=1;fontSize=10;fillColor=#f8cecc;strokeColor=#b85450;" vertex="1" parent="1">
          <mxGeometry x="1280" y="430" width="160" height="40" as="geometry" />
        </mxCell>
        <mxCell id="rIrtPUxKBsClz7UrobYS-83" value="VIN" style="rounded=0;whiteSpace=wrap;html=1;fontSize=8;fillColor=#FF9999;strokeColor=#b85450;" vertex="1" parent="1">
          <mxGeometry x="1280" y="430" width="40" height="20" as="geometry" />
        </mxCell>
        <mxCell id="rIrtPUxKBsClz7UrobYS-86" value="VOUT" style="rounded=0;whiteSpace=wrap;html=1;fontSize=8;fillColor=#FF9999;strokeColor=#b85450;" vertex="1" parent="1">
          <mxGeometry x="1400" y="450" width="40" height="20" as="geometry" />
        </mxCell>
        <mxCell id="rIrtPUxKBsClz7UrobYS-89" value="&lt;b&gt;&lt;font style=&quot;font-size: 9px;&quot;&gt;Linear Voltage&lt;/font&gt;&lt;br&gt;&lt;font style=&quot;font-size: 9px;&quot;&gt;Source&amp;nbsp;&lt;/font&gt;&lt;/b&gt;&lt;b style=&quot;background-color: transparent; color: light-dark(rgb(0, 0, 0), rgb(255, 255, 255));&quot;&gt;&lt;font style=&quot;font-size: 9px;&quot;&gt;Selector&lt;/font&gt;&lt;/b&gt;&lt;div&gt;&lt;font style=&quot;font-size: 9px;&quot;&gt;Primary: VIN1&lt;br&gt;Backup: VIN2&lt;/font&gt;&lt;/div&gt;" style="rounded=0;whiteSpace=wrap;html=1;fontSize=10;fillColor=#fad7ac;strokeColor=#b46504;" vertex="1" parent="1">
          <mxGeometry x="1520" y="270" width="160" height="70" as="geometry" />
        </mxCell>
        <mxCell id="rIrtPUxKBsClz7UrobYS-90" value="VIN2" style="rounded=0;whiteSpace=wrap;html=1;fontSize=8;fillColor=#FF9933;strokeColor=#b46504;" vertex="1" parent="1">
          <mxGeometry x="1520" y="300" width="40" height="20" as="geometry" />
        </mxCell>
        <mxCell id="rIrtPUxKBsClz7UrobYS-148" style="edgeStyle=orthogonalEdgeStyle;rounded=0;orthogonalLoop=1;jettySize=auto;html=1;exitX=1;exitY=0.5;exitDx=0;exitDy=0;entryX=0;entryY=0.5;entryDx=0;entryDy=0;strokeWidth=3;strokeColor=#CC0000;" edge="1" parent="1" source="rIrtPUxKBsClz7UrobYS-92" target="rIrtPUxKBsClz7UrobYS-146">
          <mxGeometry relative="1" as="geometry" />
        </mxCell>
        <mxCell id="rIrtPUxKBsClz7UrobYS-92" value="VOUT" style="rounded=0;whiteSpace=wrap;html=1;fontSize=8;fillColor=#FF9933;strokeColor=#b46504;" vertex="1" parent="1">
          <mxGeometry x="1640" y="300" width="40" height="20" as="geometry" />
        </mxCell>
        <mxCell id="rIrtPUxKBsClz7UrobYS-93" value="VIN1" style="rounded=0;whiteSpace=wrap;html=1;fontSize=8;fillColor=#FF9933;strokeColor=#b46504;" vertex="1" parent="1">
          <mxGeometry x="1520" y="320" width="40" height="20" as="geometry" />
        </mxCell>
        <mxCell id="rIrtPUxKBsClz7UrobYS-100" style="edgeStyle=orthogonalEdgeStyle;rounded=0;orthogonalLoop=1;jettySize=auto;html=1;exitX=1;exitY=0.5;exitDx=0;exitDy=0;entryX=0;entryY=0.5;entryDx=0;entryDy=0;strokeWidth=3;strokeColor=#CC0000;" edge="1" parent="1" source="rIrtPUxKBsClz7UrobYS-107" target="rIrtPUxKBsClz7UrobYS-83">
          <mxGeometry relative="1" as="geometry">
            <Array as="points" />
          </mxGeometry>
        </mxCell>
        <mxCell id="rIrtPUxKBsClz7UrobYS-104" value="VSW&lt;br&gt;VIN" style="rounded=0;whiteSpace=wrap;html=1;fontSize=7;fillColor=#E6E6E6;fontColor=#333333;strokeColor=#666666;" vertex="1" parent="1">
          <mxGeometry x="160" y="560" width="40" height="20" as="geometry" />
        </mxCell>
        <mxCell id="rIrtPUxKBsClz7UrobYS-107" value="" style="ellipse;whiteSpace=wrap;html=1;aspect=fixed;labelBackgroundColor=none;fillColor=#CC0000;strokeColor=#CC0000;" vertex="1" parent="1">
          <mxGeometry x="1250" y="435" width="10" height="10" as="geometry" />
        </mxCell>
        <mxCell id="rIrtPUxKBsClz7UrobYS-111" value="VLDO&lt;br&gt;VIN1" style="rounded=0;whiteSpace=wrap;html=1;fontSize=7;fillColor=#E6E6E6;fontColor=#333333;strokeColor=#666666;" vertex="1" parent="1">
          <mxGeometry x="160" y="590" width="40" height="20" as="geometry" />
        </mxCell>
        <mxCell id="rIrtPUxKBsClz7UrobYS-113" value="VLDO&lt;div&gt;VIN2&lt;/div&gt;" style="rounded=0;whiteSpace=wrap;html=1;fontSize=7;fillColor=#E6E6E6;fontColor=#333333;strokeColor=#666666;" vertex="1" parent="1">
          <mxGeometry x="160" y="610" width="40" height="20" as="geometry" />
        </mxCell>
        <mxCell id="rIrtPUxKBsClz7UrobYS-117" value="" style="edgeStyle=orthogonalEdgeStyle;rounded=0;orthogonalLoop=1;jettySize=auto;html=1;exitX=1;exitY=0.5;exitDx=0;exitDy=0;entryX=0;entryY=0.5;entryDx=0;entryDy=0;strokeWidth=3;strokeColor=#CC0000;endArrow=none;startFill=0;" edge="1" parent="1" source="rIrtPUxKBsClz7UrobYS-125" target="rIrtPUxKBsClz7UrobYS-116">
          <mxGeometry relative="1" as="geometry">
            <mxPoint x="1160" y="440" as="sourcePoint" />
            <mxPoint x="1285" y="440" as="targetPoint" />
            <Array as="points" />
          </mxGeometry>
        </mxCell>
        <mxCell id="rIrtPUxKBsClz7UrobYS-116" value="Solder&lt;br&gt;Jumper" style="rounded=1;whiteSpace=wrap;html=1;fontSize=8;fillColor=#FF9999;strokeColor=#b85450;strokeWidth=2;fontStyle=1" vertex="1" parent="1">
          <mxGeometry x="1200" y="430" width="40" height="20" as="geometry" />
        </mxCell>
        <mxCell id="rIrtPUxKBsClz7UrobYS-123" value="" style="edgeStyle=orthogonalEdgeStyle;rounded=1;orthogonalLoop=1;jettySize=auto;html=1;exitX=1;exitY=0.5;exitDx=0;exitDy=0;entryX=0.5;entryY=1;entryDx=0;entryDy=0;endArrow=none;startFill=0;strokeWidth=3;strokeColor=#CC0000;curved=0;" edge="1" parent="1" source="rIrtPUxKBsClz7UrobYS-111" target="rIrtPUxKBsClz7UrobYS-241">
          <mxGeometry relative="1" as="geometry">
            <mxPoint x="200" y="560" as="sourcePoint" />
            <mxPoint x="1140" y="560" as="targetPoint" />
          </mxGeometry>
        </mxCell>
        <mxCell id="rIrtPUxKBsClz7UrobYS-126" value="" style="edgeStyle=orthogonalEdgeStyle;rounded=0;orthogonalLoop=1;jettySize=auto;html=1;exitX=1;exitY=0.5;exitDx=0;exitDy=0;entryX=0;entryY=0.5;entryDx=0;entryDy=0;strokeWidth=3;strokeColor=#CC0000;endArrow=none;startFill=0;" edge="1" parent="1" source="rIrtPUxKBsClz7UrobYS-210" target="rIrtPUxKBsClz7UrobYS-125">
          <mxGeometry relative="1" as="geometry">
            <mxPoint x="1120" y="440" as="sourcePoint" />
            <mxPoint x="1160" y="440" as="targetPoint" />
            <Array as="points" />
          </mxGeometry>
        </mxCell>
        <mxCell id="rIrtPUxKBsClz7UrobYS-130" style="edgeStyle=orthogonalEdgeStyle;rounded=1;orthogonalLoop=1;jettySize=auto;html=1;exitX=0.5;exitY=1;exitDx=0;exitDy=0;entryX=0;entryY=0.5;entryDx=0;entryDy=0;endArrow=none;startFill=0;curved=0;strokeWidth=3;strokeColor=#CC0000;" edge="1" parent="1" source="rIrtPUxKBsClz7UrobYS-125" target="rIrtPUxKBsClz7UrobYS-134">
          <mxGeometry relative="1" as="geometry">
            <mxPoint x="1200" y="490" as="targetPoint" />
            <Array as="points">
              <mxPoint x="1185" y="310" />
            </Array>
          </mxGeometry>
        </mxCell>
        <mxCell id="rIrtPUxKBsClz7UrobYS-125" value="" style="ellipse;whiteSpace=wrap;html=1;aspect=fixed;labelBackgroundColor=none;fillColor=#CC0000;strokeColor=#CC0000;" vertex="1" parent="1">
          <mxGeometry x="1180" y="435" width="10" height="10" as="geometry" />
        </mxCell>
        <mxCell id="rIrtPUxKBsClz7UrobYS-132" value="" style="edgeStyle=orthogonalEdgeStyle;rounded=1;orthogonalLoop=1;jettySize=auto;html=1;exitX=0.5;exitY=0;exitDx=0;exitDy=0;entryX=0.5;entryY=1;entryDx=0;entryDy=0;curved=0;strokeWidth=3;strokeColor=#CC0000;endArrow=none;startFill=0;" edge="1" parent="1" source="rIrtPUxKBsClz7UrobYS-140" target="rIrtPUxKBsClz7UrobYS-138">
          <mxGeometry relative="1" as="geometry">
            <mxPoint x="1440" y="430" as="sourcePoint" />
            <mxPoint x="1465" y="460" as="targetPoint" />
          </mxGeometry>
        </mxCell>
        <mxCell id="rIrtPUxKBsClz7UrobYS-137" style="edgeStyle=orthogonalEdgeStyle;rounded=0;orthogonalLoop=1;jettySize=auto;html=1;exitX=1;exitY=0.5;exitDx=0;exitDy=0;entryX=0;entryY=0.5;entryDx=0;entryDy=0;strokeWidth=3;strokeColor=#CC0000;endArrow=block;endFill=1;" edge="1" parent="1" source="rIrtPUxKBsClz7UrobYS-134" target="rIrtPUxKBsClz7UrobYS-90">
          <mxGeometry relative="1" as="geometry" />
        </mxCell>
        <mxCell id="rIrtPUxKBsClz7UrobYS-134" value="Solder&lt;br&gt;Jumper" style="rounded=1;whiteSpace=wrap;html=1;fontSize=8;fillColor=#FF9999;strokeColor=#b85450;strokeWidth=2;fontStyle=1" vertex="1" parent="1">
          <mxGeometry x="1440" y="300" width="40" height="20" as="geometry" />
        </mxCell>
        <mxCell id="rIrtPUxKBsClz7UrobYS-139" style="edgeStyle=orthogonalEdgeStyle;rounded=0;orthogonalLoop=1;jettySize=auto;html=1;exitX=1;exitY=0.5;exitDx=0;exitDy=0;entryX=0;entryY=0.5;entryDx=0;entryDy=0;strokeWidth=3;strokeColor=#CC0000;endArrow=block;endFill=1;" edge="1" parent="1" source="rIrtPUxKBsClz7UrobYS-127" target="rIrtPUxKBsClz7UrobYS-93">
          <mxGeometry relative="1" as="geometry" />
        </mxCell>
        <mxCell id="rIrtPUxKBsClz7UrobYS-138" value="Solder&lt;br&gt;Jumper" style="rounded=1;whiteSpace=wrap;html=1;fontSize=8;fillColor=#FF9999;strokeColor=#b85450;strokeWidth=2;fontStyle=1" vertex="1" parent="1">
          <mxGeometry x="1440" y="320" width="40" height="20" as="geometry" />
        </mxCell>
        <mxCell id="rIrtPUxKBsClz7UrobYS-141" value="" style="edgeStyle=orthogonalEdgeStyle;rounded=1;orthogonalLoop=1;jettySize=auto;html=1;exitX=1;exitY=0.5;exitDx=0;exitDy=0;entryX=0;entryY=0.5;entryDx=0;entryDy=0;curved=0;strokeWidth=3;strokeColor=#CC0000;endArrow=none;startFill=0;" edge="1" parent="1" source="rIrtPUxKBsClz7UrobYS-86" target="rIrtPUxKBsClz7UrobYS-140">
          <mxGeometry relative="1" as="geometry">
            <mxPoint x="1440" y="440" as="sourcePoint" />
            <mxPoint x="1480" y="390" as="targetPoint" />
          </mxGeometry>
        </mxCell>
        <mxCell id="rIrtPUxKBsClz7UrobYS-165" style="edgeStyle=orthogonalEdgeStyle;rounded=0;orthogonalLoop=1;jettySize=auto;html=1;exitX=1;exitY=0.5;exitDx=0;exitDy=0;entryX=0;entryY=0.5;entryDx=0;entryDy=0;strokeWidth=3;strokeColor=#CC0000;" edge="1" parent="1" source="rIrtPUxKBsClz7UrobYS-241" target="rIrtPUxKBsClz7UrobYS-164">
          <mxGeometry relative="1" as="geometry" />
        </mxCell>
        <mxCell id="rIrtPUxKBsClz7UrobYS-201" value="&lt;span style=&quot;color: rgb(204, 0, 0); font-weight: 700;&quot;&gt;5V @ 2A Max&lt;/span&gt;&lt;br style=&quot;color: rgb(204, 0, 0); font-weight: 700;&quot;&gt;&lt;span style=&quot;color: rgb(204, 0, 0); font-weight: 700;&quot;&gt;OR 3.3V @ 2A Max&lt;/span&gt;" style="edgeLabel;html=1;align=center;verticalAlign=middle;resizable=0;points=[];labelBackgroundColor=none;fontSize=9;" vertex="1" connectable="0" parent="rIrtPUxKBsClz7UrobYS-165">
          <mxGeometry x="0.7707" y="2" relative="1" as="geometry">
            <mxPoint x="-3" y="-13" as="offset" />
          </mxGeometry>
        </mxCell>
        <mxCell id="rIrtPUxKBsClz7UrobYS-140" value="" style="ellipse;whiteSpace=wrap;html=1;aspect=fixed;labelBackgroundColor=none;fillColor=#CC0000;strokeColor=#CC0000;" vertex="1" parent="1">
          <mxGeometry x="1455" y="455" width="10" height="10" as="geometry" />
        </mxCell>
        <mxCell id="rIrtPUxKBsClz7UrobYS-143" value="" style="edgeStyle=orthogonalEdgeStyle;rounded=0;orthogonalLoop=1;jettySize=auto;html=1;exitX=1;exitY=0.5;exitDx=0;exitDy=0;entryX=0;entryY=0.5;entryDx=0;entryDy=0;strokeWidth=3;strokeColor=#CC0000;endArrow=none;endFill=1;startFill=0;" edge="1" parent="1" source="rIrtPUxKBsClz7UrobYS-138" target="rIrtPUxKBsClz7UrobYS-127">
          <mxGeometry relative="1" as="geometry">
            <mxPoint x="1480" y="330" as="sourcePoint" />
            <mxPoint x="1520" y="330" as="targetPoint" />
          </mxGeometry>
        </mxCell>
        <mxCell id="rIrtPUxKBsClz7UrobYS-127" value="" style="ellipse;whiteSpace=wrap;html=1;aspect=fixed;labelBackgroundColor=none;fillColor=#CC0000;strokeColor=#CC0000;" vertex="1" parent="1">
          <mxGeometry x="1490" y="325" width="10" height="10" as="geometry" />
        </mxCell>
        <mxCell id="rIrtPUxKBsClz7UrobYS-145" value="&lt;b&gt;Linear Voltage&lt;/b&gt;&lt;div&gt;&lt;b&gt;Regulator&lt;br&gt;&lt;/b&gt;&lt;br&gt;TPS7A2601&lt;/div&gt;" style="rounded=0;whiteSpace=wrap;html=1;fontSize=9;fillColor=#f8cecc;strokeColor=#b85450;verticalAlign=bottom;" vertex="1" parent="1">
          <mxGeometry x="1720" y="270" width="160" height="70" as="geometry" />
        </mxCell>
        <mxCell id="rIrtPUxKBsClz7UrobYS-146" value="VIN" style="rounded=0;whiteSpace=wrap;html=1;fontSize=8;fillColor=#FF9999;strokeColor=#b85450;" vertex="1" parent="1">
          <mxGeometry x="1720" y="300" width="40" height="20" as="geometry" />
        </mxCell>
        <mxCell id="rIrtPUxKBsClz7UrobYS-161" style="edgeStyle=orthogonalEdgeStyle;rounded=1;orthogonalLoop=1;jettySize=auto;html=1;exitX=1;exitY=0.5;exitDx=0;exitDy=0;entryX=0;entryY=0.5;entryDx=0;entryDy=0;strokeWidth=3;curved=0;strokeColor=#CC0000;" edge="1" parent="1" source="rIrtPUxKBsClz7UrobYS-147" target="rIrtPUxKBsClz7UrobYS-160">
          <mxGeometry relative="1" as="geometry" />
        </mxCell>
        <mxCell id="rIrtPUxKBsClz7UrobYS-198" value="5V @ 500mA&lt;br&gt;OR 3.3V @ 500mA" style="edgeLabel;html=1;align=center;verticalAlign=middle;resizable=0;points=[];fontColor=#CC0000;labelBackgroundColor=none;fontStyle=1;fontSize=9;" vertex="1" connectable="0" parent="rIrtPUxKBsClz7UrobYS-161">
          <mxGeometry x="-0.175" relative="1" as="geometry">
            <mxPoint x="8" y="-17" as="offset" />
          </mxGeometry>
        </mxCell>
        <mxCell id="rIrtPUxKBsClz7UrobYS-147" value="VOUT" style="rounded=0;whiteSpace=wrap;html=1;fontSize=8;fillColor=#FF9999;strokeColor=#b85450;" vertex="1" parent="1">
          <mxGeometry x="1840" y="300" width="40" height="20" as="geometry" />
        </mxCell>
        <mxCell id="rIrtPUxKBsClz7UrobYS-151" value="VSEL" style="rounded=0;whiteSpace=wrap;html=1;fontSize=8;fillColor=#FF9999;strokeColor=#b85450;" vertex="1" parent="1">
          <mxGeometry x="1720" y="320" width="40" height="20" as="geometry" />
        </mxCell>
        <mxCell id="rIrtPUxKBsClz7UrobYS-152" value="VSEL" style="rounded=0;whiteSpace=wrap;html=1;fontSize=8;fillColor=#FF9999;strokeColor=#b85450;" vertex="1" parent="1">
          <mxGeometry x="1280" y="450" width="40" height="20" as="geometry" />
        </mxCell>
        <mxCell id="rIrtPUxKBsClz7UrobYS-153" value="VLDO&lt;div&gt;VSEL&lt;/div&gt;" style="rounded=0;whiteSpace=wrap;html=1;fontSize=7;fillColor=#E6E6E6;fontColor=#333333;strokeColor=#666666;" vertex="1" parent="1">
          <mxGeometry x="160" y="660" width="40" height="20" as="geometry" />
        </mxCell>
        <mxCell id="rIrtPUxKBsClz7UrobYS-154" value="VSW&lt;br&gt;SEL" style="rounded=0;whiteSpace=wrap;html=1;fontSize=7;fillColor=#E6E6E6;fontColor=#333333;strokeColor=#666666;" vertex="1" parent="1">
          <mxGeometry x="160" y="640" width="40" height="20" as="geometry" />
        </mxCell>
        <mxCell id="rIrtPUxKBsClz7UrobYS-172" style="edgeStyle=orthogonalEdgeStyle;rounded=0;orthogonalLoop=1;jettySize=auto;html=1;exitX=1;exitY=0.5;exitDx=0;exitDy=0;entryX=0;entryY=0.5;entryDx=0;entryDy=0;strokeWidth=3;strokeColor=#CC0000;" edge="1" parent="1" source="rIrtPUxKBsClz7UrobYS-235" target="rIrtPUxKBsClz7UrobYS-171">
          <mxGeometry relative="1" as="geometry">
            <mxPoint x="230" y="360" as="sourcePoint" />
          </mxGeometry>
        </mxCell>
        <mxCell id="rIrtPUxKBsClz7UrobYS-199" value="5-20V @ 5A Max&lt;div&gt;(VBUS after negotiation)&lt;/div&gt;" style="edgeLabel;html=1;align=center;verticalAlign=middle;resizable=0;points=[];labelBackgroundColor=none;fontColor=#CC0000;fontStyle=1;fontSize=9;" vertex="1" connectable="0" parent="rIrtPUxKBsClz7UrobYS-172">
          <mxGeometry x="0.9203" y="-1" relative="1" as="geometry">
            <mxPoint x="-8" y="-15" as="offset" />
          </mxGeometry>
        </mxCell>
        <mxCell id="rIrtPUxKBsClz7UrobYS-160" value="VLDO" style="rounded=0;whiteSpace=wrap;html=1;fontSize=8;fillColor=#E6E6E6;fontColor=#333333;strokeColor=#666666;" vertex="1" parent="1">
          <mxGeometry x="2000" y="300" width="40" height="20" as="geometry" />
        </mxCell>
        <mxCell id="rIrtPUxKBsClz7UrobYS-162" value="BC_VIN" style="rounded=0;whiteSpace=wrap;html=1;fontSize=8;fillColor=#E6E6E6;fontColor=#333333;strokeColor=#666666;" vertex="1" parent="1">
          <mxGeometry x="2000" y="380" width="40" height="20" as="geometry" />
        </mxCell>
        <mxCell id="rIrtPUxKBsClz7UrobYS-163" value="PMID" style="rounded=0;whiteSpace=wrap;html=1;fontSize=8;fillColor=#E6E6E6;fontColor=#333333;strokeColor=#666666;" vertex="1" parent="1">
          <mxGeometry x="2000" y="410" width="40" height="20" as="geometry" />
        </mxCell>
        <mxCell id="rIrtPUxKBsClz7UrobYS-164" value="VSW" style="rounded=0;whiteSpace=wrap;html=1;fontSize=8;fillColor=#E6E6E6;fontColor=#333333;strokeColor=#666666;" vertex="1" parent="1">
          <mxGeometry x="2000" y="450" width="40" height="20" as="geometry" />
        </mxCell>
        <mxCell id="rIrtPUxKBsClz7UrobYS-168" value="" style="edgeStyle=orthogonalEdgeStyle;rounded=0;orthogonalLoop=1;jettySize=auto;html=1;exitX=1;exitY=0.5;exitDx=0;exitDy=0;entryX=0;entryY=0.5;entryDx=0;entryDy=0;strokeColor=#CC0000;strokeWidth=3;endArrow=none;startFill=0;" edge="1" parent="1" source="rIrtPUxKBsClz7UrobYS-42" target="rIrtPUxKBsClz7UrobYS-167">
          <mxGeometry relative="1" as="geometry">
            <mxPoint x="640" y="420" as="sourcePoint" />
            <mxPoint x="680" y="420" as="targetPoint" />
          </mxGeometry>
        </mxCell>
        <mxCell id="rIrtPUxKBsClz7UrobYS-170" style="edgeStyle=orthogonalEdgeStyle;rounded=1;orthogonalLoop=1;jettySize=auto;html=1;exitX=0.5;exitY=0;exitDx=0;exitDy=0;entryX=0;entryY=0.5;entryDx=0;entryDy=0;strokeWidth=3;strokeColor=#CC0000;curved=0;" edge="1" parent="1" source="rIrtPUxKBsClz7UrobYS-167" target="rIrtPUxKBsClz7UrobYS-162">
          <mxGeometry relative="1" as="geometry">
            <mxPoint x="930" y="415" as="sourcePoint" />
            <Array as="points">
              <mxPoint x="925" y="390" />
            </Array>
          </mxGeometry>
        </mxCell>
        <mxCell id="rIrtPUxKBsClz7UrobYS-200" value="2.5-24V @ 5A Max&lt;br&gt;(VBUS or VEXT)" style="edgeLabel;html=1;align=center;verticalAlign=middle;resizable=0;points=[];labelBackgroundColor=none;fontSize=9;fontStyle=1;fontColor=#CC0000;" vertex="1" connectable="0" parent="rIrtPUxKBsClz7UrobYS-170">
          <mxGeometry x="0.8703" y="2" relative="1" as="geometry">
            <mxPoint y="-13" as="offset" />
          </mxGeometry>
        </mxCell>
        <mxCell id="rIrtPUxKBsClz7UrobYS-167" value="" style="ellipse;whiteSpace=wrap;html=1;aspect=fixed;labelBackgroundColor=none;fillColor=#CC0000;strokeColor=#CC0000;" vertex="1" parent="1">
          <mxGeometry x="920" y="415" width="10" height="10" as="geometry" />
        </mxCell>
        <mxCell id="rIrtPUxKBsClz7UrobYS-171" value="VBUS" style="rounded=0;whiteSpace=wrap;html=1;fontSize=8;fillColor=#E6E6E6;fontColor=#333333;strokeColor=#666666;" vertex="1" parent="1">
          <mxGeometry x="2000" y="350" width="40" height="20" as="geometry" />
        </mxCell>
        <mxCell id="rIrtPUxKBsClz7UrobYS-157" style="edgeStyle=orthogonalEdgeStyle;rounded=1;orthogonalLoop=1;jettySize=auto;html=1;exitX=1;exitY=0.5;exitDx=0;exitDy=0;entryX=0.5;entryY=1;entryDx=0;entryDy=0;curved=0;strokeColor=#000066;jumpStyle=arc;" edge="1" parent="1" source="rIrtPUxKBsClz7UrobYS-153" target="rIrtPUxKBsClz7UrobYS-151">
          <mxGeometry relative="1" as="geometry" />
        </mxCell>
        <mxCell id="rIrtPUxKBsClz7UrobYS-135" value="" style="edgeStyle=orthogonalEdgeStyle;rounded=1;orthogonalLoop=1;jettySize=auto;html=1;exitX=1;exitY=0.5;exitDx=0;exitDy=0;entryX=0.5;entryY=1;entryDx=0;entryDy=0;endArrow=none;startFill=0;strokeWidth=3;strokeColor=#CC0000;curved=0;jumpStyle=arc;" edge="1" parent="1" source="rIrtPUxKBsClz7UrobYS-113" target="rIrtPUxKBsClz7UrobYS-127">
          <mxGeometry relative="1" as="geometry">
            <mxPoint x="200" y="570" as="sourcePoint" />
            <mxPoint x="1240" y="570" as="targetPoint" />
          </mxGeometry>
        </mxCell>
        <mxCell id="rIrtPUxKBsClz7UrobYS-26" style="edgeStyle=orthogonalEdgeStyle;rounded=0;orthogonalLoop=1;jettySize=auto;html=1;exitX=0.5;exitY=1;exitDx=0;exitDy=0;entryX=0.5;entryY=0;entryDx=0;entryDy=0;jumpStyle=arc;strokeColor=#000066;endSize=3;" edge="1" parent="1" source="rIrtPUxKBsClz7UrobYS-25" target="rIrtPUxKBsClz7UrobYS-20">
          <mxGeometry relative="1" as="geometry" />
        </mxCell>
        <mxCell id="rIrtPUxKBsClz7UrobYS-173" value="" style="edgeStyle=orthogonalEdgeStyle;rounded=1;orthogonalLoop=1;jettySize=auto;html=1;exitX=0.5;exitY=1;exitDx=0;exitDy=0;entryX=0;entryY=0.5;entryDx=0;entryDy=0;curved=0;strokeWidth=3;strokeColor=#CC0000;endArrow=none;startFill=0;" edge="1" parent="1" source="rIrtPUxKBsClz7UrobYS-29" target="rIrtPUxKBsClz7UrobYS-18">
          <mxGeometry relative="1" as="geometry">
            <mxPoint x="225" y="255" as="sourcePoint" />
            <mxPoint x="225" y="355" as="targetPoint" />
          </mxGeometry>
        </mxCell>
        <mxCell id="rIrtPUxKBsClz7UrobYS-177" value="&lt;div&gt;&lt;b&gt;[&lt;u&gt;FG&lt;/u&gt;]&lt;/b&gt;&lt;/div&gt;&lt;b&gt;Fuel Gauge&lt;/b&gt;&lt;br&gt;MAX17205G&lt;div&gt;(Low-side)&lt;/div&gt;" style="rounded=0;whiteSpace=wrap;html=1;fontSize=10;fillColor=#fad7ac;strokeColor=#b46504;" vertex="1" parent="1">
          <mxGeometry x="720" y="470" width="160" height="50" as="geometry" />
        </mxCell>
        <mxCell id="rIrtPUxKBsClz7UrobYS-178" value="VIN1" style="rounded=0;whiteSpace=wrap;html=1;fontSize=8;fillColor=#FF9933;strokeColor=#b46504;" vertex="1" parent="1">
          <mxGeometry x="720" y="470" width="40" height="20" as="geometry" />
        </mxCell>
        <mxCell id="rIrtPUxKBsClz7UrobYS-182" style="edgeStyle=orthogonalEdgeStyle;rounded=0;orthogonalLoop=1;jettySize=auto;html=1;exitX=1;exitY=0.5;exitDx=0;exitDy=0;entryX=0;entryY=0.5;entryDx=0;entryDy=0;strokeWidth=3;strokeColor=#CC0000;" edge="1" parent="1" source="rIrtPUxKBsClz7UrobYS-180" target="rIrtPUxKBsClz7UrobYS-63">
          <mxGeometry relative="1" as="geometry" />
        </mxCell>
        <mxCell id="rIrtPUxKBsClz7UrobYS-180" value="VOUT" style="rounded=0;whiteSpace=wrap;html=1;fontSize=8;fillColor=#FF9933;strokeColor=#b46504;" vertex="1" parent="1">
          <mxGeometry x="840" y="470" width="40" height="20" as="geometry" />
        </mxCell>
        <mxCell id="rIrtPUxKBsClz7UrobYS-191" style="edgeStyle=orthogonalEdgeStyle;rounded=0;orthogonalLoop=1;jettySize=auto;html=1;exitX=1;exitY=0.5;exitDx=0;exitDy=0;entryX=0;entryY=0.5;entryDx=0;entryDy=0;fontColor=#000066;strokeColor=#000066;" edge="1" parent="1" source="rIrtPUxKBsClz7UrobYS-192" target="rIrtPUxKBsClz7UrobYS-189">
          <mxGeometry relative="1" as="geometry" />
        </mxCell>
        <mxCell id="rIrtPUxKBsClz7UrobYS-184" value="I2C&lt;br&gt;SDA/SCL" style="rounded=0;whiteSpace=wrap;html=1;fontSize=7;fillColor=#99CCFF;strokeColor=#6c8ebf;" vertex="1" parent="1">
          <mxGeometry x="400" y="240" width="40" height="20" as="geometry" />
        </mxCell>
        <mxCell id="rIrtPUxKBsClz7UrobYS-185" value="I2C&lt;div&gt;SDA/SCL&lt;/div&gt;" style="rounded=0;whiteSpace=wrap;html=1;fontSize=7;fillColor=#FF9933;strokeColor=#b46504;" vertex="1" parent="1">
          <mxGeometry x="840" y="500" width="40" height="20" as="geometry" />
        </mxCell>
        <mxCell id="rIrtPUxKBsClz7UrobYS-186" value="I2C&lt;div&gt;SDA/SCL&lt;/div&gt;" style="rounded=0;whiteSpace=wrap;html=1;fontSize=7;fillColor=#FF9999;strokeColor=#b85450;" vertex="1" parent="1">
          <mxGeometry x="1080" y="450" width="40" height="20" as="geometry" />
        </mxCell>
        <mxCell id="rIrtPUxKBsClz7UrobYS-189" value="I2C&lt;div&gt;SDA/SCL&lt;/div&gt;" style="rounded=0;whiteSpace=wrap;html=1;fontSize=7;fillColor=#E6E6E6;fontColor=#333333;strokeColor=#666666;" vertex="1" parent="1">
          <mxGeometry x="2000" y="240" width="40" height="20" as="geometry" />
        </mxCell>
        <mxCell id="rIrtPUxKBsClz7UrobYS-193" value="" style="edgeStyle=orthogonalEdgeStyle;rounded=0;orthogonalLoop=1;jettySize=auto;html=1;exitX=1;exitY=0.5;exitDx=0;exitDy=0;entryX=0;entryY=0.5;entryDx=0;entryDy=0;fontColor=#000066;strokeColor=#000066;endArrow=none;startFill=0;" edge="1" parent="1" source="rIrtPUxKBsClz7UrobYS-195" target="rIrtPUxKBsClz7UrobYS-192">
          <mxGeometry relative="1" as="geometry">
            <mxPoint x="440" y="250" as="sourcePoint" />
            <mxPoint x="1920" y="250" as="targetPoint" />
          </mxGeometry>
        </mxCell>
        <mxCell id="rIrtPUxKBsClz7UrobYS-192" value="" style="ellipse;whiteSpace=wrap;html=1;aspect=fixed;labelBackgroundColor=none;fillColor=#000066;strokeColor=#000066;" vertex="1" parent="1">
          <mxGeometry x="1140" y="245" width="10" height="10" as="geometry" />
        </mxCell>
        <mxCell id="rIrtPUxKBsClz7UrobYS-196" value="" style="edgeStyle=orthogonalEdgeStyle;rounded=0;orthogonalLoop=1;jettySize=auto;html=1;exitX=1;exitY=0.5;exitDx=0;exitDy=0;entryX=0;entryY=0.5;entryDx=0;entryDy=0;fontColor=#000066;strokeColor=#000066;endArrow=none;startFill=0;" edge="1" parent="1" source="rIrtPUxKBsClz7UrobYS-184" target="rIrtPUxKBsClz7UrobYS-195">
          <mxGeometry relative="1" as="geometry">
            <mxPoint x="440" y="250" as="sourcePoint" />
            <mxPoint x="1140" y="250" as="targetPoint" />
          </mxGeometry>
        </mxCell>
        <mxCell id="rIrtPUxKBsClz7UrobYS-195" value="" style="ellipse;whiteSpace=wrap;html=1;aspect=fixed;labelBackgroundColor=none;fillColor=#000066;strokeColor=#000066;" vertex="1" parent="1">
          <mxGeometry x="900" y="245" width="10" height="10" as="geometry" />
        </mxCell>
        <mxCell id="rIrtPUxKBsClz7UrobYS-206" value="" style="edgeStyle=orthogonalEdgeStyle;rounded=1;orthogonalLoop=1;jettySize=auto;html=1;exitX=1;exitY=0.5;exitDx=0;exitDy=0;curved=0;strokeWidth=3;strokeColor=#CC0000;endArrow=none;startFill=0;entryX=0.5;entryY=1;entryDx=0;entryDy=0;" edge="1" parent="1" source="rIrtPUxKBsClz7UrobYS-104" target="rIrtPUxKBsClz7UrobYS-107">
          <mxGeometry relative="1" as="geometry">
            <mxPoint x="200" y="530" as="sourcePoint" />
            <mxPoint x="1255" y="500" as="targetPoint" />
          </mxGeometry>
        </mxCell>
        <mxCell id="rIrtPUxKBsClz7UrobYS-209" style="edgeStyle=orthogonalEdgeStyle;rounded=1;orthogonalLoop=1;jettySize=auto;html=1;exitX=0.5;exitY=1;exitDx=0;exitDy=0;entryX=0;entryY=0.5;entryDx=0;entryDy=0;strokeColor=#CC0000;strokeWidth=3;curved=0;" edge="1" parent="1" source="rIrtPUxKBsClz7UrobYS-210" target="rIrtPUxKBsClz7UrobYS-208">
          <mxGeometry relative="1" as="geometry">
            <mxPoint x="1260" y="490" as="sourcePoint" />
          </mxGeometry>
        </mxCell>
        <mxCell id="rIrtPUxKBsClz7UrobYS-212" value="2.5-13V @ 3A Max&lt;div&gt;(VBAT or VBATCHG)&lt;/div&gt;" style="edgeLabel;html=1;align=center;verticalAlign=middle;resizable=0;points=[];labelBackgroundColor=none;fontSize=9;fontStyle=1;fontColor=#CC0000;" vertex="1" connectable="0" parent="rIrtPUxKBsClz7UrobYS-209">
          <mxGeometry x="0.8268" y="2" relative="1" as="geometry">
            <mxPoint x="10" y="-13" as="offset" />
          </mxGeometry>
        </mxCell>
        <mxCell id="rIrtPUxKBsClz7UrobYS-208" value="VSYS" style="rounded=0;whiteSpace=wrap;html=1;fontSize=8;fillColor=#E6E6E6;fontColor=#333333;strokeColor=#666666;" vertex="1" parent="1">
          <mxGeometry x="2000" y="480" width="40" height="20" as="geometry" />
        </mxCell>
        <mxCell id="rIrtPUxKBsClz7UrobYS-155" style="edgeStyle=orthogonalEdgeStyle;rounded=1;orthogonalLoop=1;jettySize=auto;html=1;exitX=1;exitY=0.5;exitDx=0;exitDy=0;entryX=0.5;entryY=1;entryDx=0;entryDy=0;curved=0;strokeColor=#000066;jumpStyle=arc;" edge="1" parent="1" source="rIrtPUxKBsClz7UrobYS-154" target="rIrtPUxKBsClz7UrobYS-152">
          <mxGeometry relative="1" as="geometry" />
        </mxCell>
        <mxCell id="rIrtPUxKBsClz7UrobYS-211" value="" style="edgeStyle=orthogonalEdgeStyle;rounded=0;orthogonalLoop=1;jettySize=auto;html=1;exitX=1;exitY=0.5;exitDx=0;exitDy=0;entryX=0;entryY=0.5;entryDx=0;entryDy=0;strokeWidth=3;strokeColor=#CC0000;endArrow=none;startFill=0;" edge="1" parent="1" source="rIrtPUxKBsClz7UrobYS-60" target="rIrtPUxKBsClz7UrobYS-210">
          <mxGeometry relative="1" as="geometry">
            <mxPoint x="1120" y="440" as="sourcePoint" />
            <mxPoint x="1180" y="440" as="targetPoint" />
            <Array as="points" />
          </mxGeometry>
        </mxCell>
        <mxCell id="rIrtPUxKBsClz7UrobYS-210" value="" style="ellipse;whiteSpace=wrap;html=1;aspect=fixed;labelBackgroundColor=none;fillColor=#CC0000;strokeColor=#CC0000;" vertex="1" parent="1">
          <mxGeometry x="1160" y="435" width="10" height="10" as="geometry" />
        </mxCell>
        <mxCell id="rIrtPUxKBsClz7UrobYS-214" value="Analog&lt;div&gt;Controls&lt;/div&gt;" style="rounded=0;whiteSpace=wrap;html=1;fontSize=8;fillColor=#FF9999;strokeColor=#b85450;" vertex="1" parent="1">
          <mxGeometry x="1780" y="270" width="40" height="20" as="geometry" />
        </mxCell>
        <mxCell id="rIrtPUxKBsClz7UrobYS-215" value="Analog&lt;div&gt;Controls&lt;/div&gt;" style="rounded=0;whiteSpace=wrap;html=1;fontSize=8;fillColor=#FF9999;strokeColor=#b85450;" vertex="1" parent="1">
          <mxGeometry x="1400" y="430" width="40" height="20" as="geometry" />
        </mxCell>
        <mxCell id="rIrtPUxKBsClz7UrobYS-216" value="Analog&lt;div&gt;Controls&lt;/div&gt;" style="rounded=0;whiteSpace=wrap;html=1;fontSize=8;fillColor=#FF9999;strokeColor=#b85450;" vertex="1" parent="1">
          <mxGeometry x="1020" y="410" width="40" height="20" as="geometry" />
        </mxCell>
        <mxCell id="rIrtPUxKBsClz7UrobYS-217" value="Pin headers:&lt;br&gt;&lt;b&gt;Analog/&lt;/b&gt;&lt;div&gt;&lt;b&gt;Standalone&lt;br&gt;&lt;/b&gt;&lt;div&gt;&lt;b&gt;Config. &amp;amp;&lt;/b&gt;&lt;/div&gt;&lt;/div&gt;&lt;div&gt;&lt;b&gt;Control&lt;/b&gt;&lt;/div&gt;" style="rounded=0;whiteSpace=wrap;html=1;align=left;spacingLeft=8;fontSize=11;fillColor=#f5f5f5;fontColor=#333333;strokeColor=#666666;" vertex="1" parent="1">
          <mxGeometry x="80" y="110" width="120" height="100" as="geometry" />
        </mxCell>
        <mxCell id="rIrtPUxKBsClz7UrobYS-231" style="edgeStyle=orthogonalEdgeStyle;rounded=1;orthogonalLoop=1;jettySize=auto;html=1;exitX=1;exitY=0.5;exitDx=0;exitDy=0;entryX=0.5;entryY=0;entryDx=0;entryDy=0;curved=0;strokeColor=#000066;jumpStyle=arc;" edge="1" parent="1" source="rIrtPUxKBsClz7UrobYS-220" target="rIrtPUxKBsClz7UrobYS-145">
          <mxGeometry relative="1" as="geometry" />
        </mxCell>
        <mxCell id="rIrtPUxKBsClz7UrobYS-220" value="VLDO&lt;div&gt;Controls&lt;/div&gt;" style="rounded=0;whiteSpace=wrap;html=1;fontSize=7;fillColor=#E6E6E6;fontColor=#333333;strokeColor=#666666;" vertex="1" parent="1">
          <mxGeometry x="160" y="120" width="40" height="20" as="geometry" />
        </mxCell>
        <mxCell id="rIrtPUxKBsClz7UrobYS-228" style="edgeStyle=orthogonalEdgeStyle;rounded=1;orthogonalLoop=1;jettySize=auto;html=1;exitX=1;exitY=0.5;exitDx=0;exitDy=0;entryX=0.5;entryY=0;entryDx=0;entryDy=0;curved=0;jumpStyle=arc;" edge="1" parent="1" source="rIrtPUxKBsClz7UrobYS-221" target="rIrtPUxKBsClz7UrobYS-215">
          <mxGeometry relative="1" as="geometry" />
        </mxCell>
        <mxCell id="rIrtPUxKBsClz7UrobYS-221" value="VSW&lt;div&gt;Controls&lt;/div&gt;" style="rounded=0;whiteSpace=wrap;html=1;fontSize=7;fillColor=#E6E6E6;fontColor=#333333;strokeColor=#666666;" vertex="1" parent="1">
          <mxGeometry x="160" y="140" width="40" height="20" as="geometry" />
        </mxCell>
        <mxCell id="rIrtPUxKBsClz7UrobYS-227" style="edgeStyle=orthogonalEdgeStyle;rounded=1;orthogonalLoop=1;jettySize=auto;html=1;exitX=1;exitY=0.5;exitDx=0;exitDy=0;entryX=0.5;entryY=0;entryDx=0;entryDy=0;curved=0;strokeColor=default;jumpStyle=arc;" edge="1" parent="1" source="rIrtPUxKBsClz7UrobYS-222" target="rIrtPUxKBsClz7UrobYS-216">
          <mxGeometry relative="1" as="geometry" />
        </mxCell>
        <mxCell id="rIrtPUxKBsClz7UrobYS-222" value="Charger&lt;div&gt;Controls&lt;/div&gt;" style="rounded=0;whiteSpace=wrap;html=1;fontSize=7;fillColor=#E6E6E6;fontColor=#333333;strokeColor=#666666;" vertex="1" parent="1">
          <mxGeometry x="160" y="160" width="40" height="20" as="geometry" />
        </mxCell>
        <mxCell id="rIrtPUxKBsClz7UrobYS-226" style="edgeStyle=orthogonalEdgeStyle;rounded=1;orthogonalLoop=1;jettySize=auto;html=1;exitX=1;exitY=0.5;exitDx=0;exitDy=0;entryX=0.5;entryY=0;entryDx=0;entryDy=0;curved=0;strokeWidth=1;strokeColor=#000066;" edge="1" parent="1" source="rIrtPUxKBsClz7UrobYS-223" target="rIrtPUxKBsClz7UrobYS-7">
          <mxGeometry relative="1" as="geometry" />
        </mxCell>
        <mxCell id="rIrtPUxKBsClz7UrobYS-223" value="USB-PD&lt;div&gt;VSET/&lt;span style=&quot;background-color: transparent; color: light-dark(rgb(51, 51, 51), rgb(193, 193, 193));&quot;&gt;ISET&lt;/span&gt;&lt;/div&gt;" style="rounded=0;whiteSpace=wrap;html=1;fontSize=7;fillColor=#E6E6E6;fontColor=#333333;strokeColor=#666666;" vertex="1" parent="1">
          <mxGeometry x="160" y="180" width="40" height="20" as="geometry" />
        </mxCell>
        <mxCell id="rIrtPUxKBsClz7UrobYS-225" value="Analog&lt;div&gt;Config&lt;/div&gt;" style="rounded=0;whiteSpace=wrap;html=1;fontSize=7;fillColor=#99CCFF;strokeColor=#6c8ebf;" vertex="1" parent="1">
          <mxGeometry x="340" y="240" width="40" height="20" as="geometry" />
        </mxCell>
        <mxCell id="rIrtPUxKBsClz7UrobYS-232" value="CELL1/&lt;div&gt;CELL2&lt;/div&gt;" style="rounded=0;whiteSpace=wrap;html=1;fontSize=7;fillColor=#FF9933;strokeColor=#b46504;" vertex="1" parent="1">
          <mxGeometry x="720" y="500" width="40" height="20" as="geometry" />
        </mxCell>
        <mxCell id="rIrtPUxKBsClz7UrobYS-234" style="edgeStyle=orthogonalEdgeStyle;rounded=1;orthogonalLoop=1;jettySize=auto;html=1;exitX=1;exitY=0.5;exitDx=0;exitDy=0;entryX=0.5;entryY=1;entryDx=0;entryDy=0;curved=0;strokeWidth=3;strokeColor=#CC0000;" edge="1" parent="1" source="rIrtPUxKBsClz7UrobYS-233" target="rIrtPUxKBsClz7UrobYS-232">
          <mxGeometry relative="1" as="geometry" />
        </mxCell>
        <mxCell id="rIrtPUxKBsClz7UrobYS-233" value="VBAT&lt;br&gt;(CELLS)" style="rounded=0;whiteSpace=wrap;html=1;fontSize=8;fillColor=#E6E6E6;fontColor=#333333;strokeColor=#666666;" vertex="1" parent="1">
          <mxGeometry x="160" y="530" width="40" height="20" as="geometry" />
        </mxCell>
        <mxCell id="rIrtPUxKBsClz7UrobYS-70" style="edgeStyle=orthogonalEdgeStyle;rounded=1;orthogonalLoop=1;jettySize=auto;html=1;exitX=0.5;exitY=1;exitDx=0;exitDy=0;entryX=1;entryY=0.5;entryDx=0;entryDy=0;curved=0;strokeColor=#000066;jumpStyle=arc;" edge="1" parent="1" source="rIrtPUxKBsClz7UrobYS-64" target="rIrtPUxKBsClz7UrobYS-67">
          <mxGeometry relative="1" as="geometry">
            <Array as="points">
              <mxPoint x="1100" y="560" />
              <mxPoint x="680" y="560" />
              <mxPoint x="680" y="500" />
            </Array>
          </mxGeometry>
        </mxCell>
        <mxCell id="rIrtPUxKBsClz7UrobYS-58" style="edgeStyle=orthogonalEdgeStyle;rounded=1;orthogonalLoop=1;jettySize=auto;html=1;exitX=0.5;exitY=1;exitDx=0;exitDy=0;entryX=0;entryY=0.5;entryDx=0;entryDy=0;curved=0;jumpStyle=arc;strokeColor=#000066;" edge="1" parent="1" source="rIrtPUxKBsClz7UrobYS-55" target="rIrtPUxKBsClz7UrobYS-33">
          <mxGeometry relative="1" as="geometry" />
        </mxCell>
        <mxCell id="rIrtPUxKBsClz7UrobYS-238" value="" style="edgeStyle=orthogonalEdgeStyle;rounded=1;orthogonalLoop=1;jettySize=auto;html=1;exitX=1;exitY=0.5;exitDx=0;exitDy=0;entryX=0;entryY=0.5;entryDx=0;entryDy=0;curved=0;strokeColor=#CC0000;strokeWidth=3;endArrow=none;startFill=0;" edge="1" parent="1" source="rIrtPUxKBsClz7UrobYS-19" target="rIrtPUxKBsClz7UrobYS-235">
          <mxGeometry relative="1" as="geometry">
            <mxPoint x="440" y="360" as="sourcePoint" />
            <mxPoint x="450" y="360" as="targetPoint" />
          </mxGeometry>
        </mxCell>
        <mxCell id="rIrtPUxKBsClz7UrobYS-235" value="" style="ellipse;whiteSpace=wrap;html=1;aspect=fixed;labelBackgroundColor=none;fillColor=#CC0000;strokeColor=#CC0000;" vertex="1" parent="1">
          <mxGeometry x="450" y="355" width="10" height="10" as="geometry" />
        </mxCell>
        <mxCell id="rIrtPUxKBsClz7UrobYS-242" value="" style="edgeStyle=orthogonalEdgeStyle;rounded=0;orthogonalLoop=1;jettySize=auto;html=1;exitX=1;exitY=0.5;exitDx=0;exitDy=0;entryX=0;entryY=0.5;entryDx=0;entryDy=0;strokeWidth=3;strokeColor=#CC0000;endArrow=none;startFill=0;" edge="1" parent="1" source="rIrtPUxKBsClz7UrobYS-140" target="rIrtPUxKBsClz7UrobYS-241">
          <mxGeometry relative="1" as="geometry">
            <mxPoint x="1465" y="460" as="sourcePoint" />
            <mxPoint x="2000" y="460" as="targetPoint" />
          </mxGeometry>
        </mxCell>
        <mxCell id="rIrtPUxKBsClz7UrobYS-241" value="" style="ellipse;whiteSpace=wrap;html=1;aspect=fixed;labelBackgroundColor=none;fillColor=#CC0000;strokeColor=#CC0000;" vertex="1" parent="1">
          <mxGeometry x="1470" y="455" width="10" height="10" as="geometry" />
        </mxCell>
        <mxCell id="rIrtPUxKBsClz7UrobYS-197" style="edgeStyle=orthogonalEdgeStyle;rounded=1;orthogonalLoop=1;jettySize=auto;html=1;exitX=1;exitY=0.5;exitDx=0;exitDy=0;entryX=0.5;entryY=1;entryDx=0;entryDy=0;curved=0;endArrow=none;startFill=0;strokeColor=#000066;jumpStyle=arc;" edge="1" parent="1" source="rIrtPUxKBsClz7UrobYS-185" target="rIrtPUxKBsClz7UrobYS-195">
          <mxGeometry relative="1" as="geometry" />
        </mxCell>
        <mxCell id="rIrtPUxKBsClz7UrobYS-194" style="edgeStyle=orthogonalEdgeStyle;rounded=1;orthogonalLoop=1;jettySize=auto;html=1;exitX=1;exitY=0.5;exitDx=0;exitDy=0;entryX=0.5;entryY=1;entryDx=0;entryDy=0;curved=0;strokeColor=#000066;endArrow=none;startFill=0;jumpStyle=arc;" edge="1" parent="1" source="rIrtPUxKBsClz7UrobYS-186" target="rIrtPUxKBsClz7UrobYS-192">
          <mxGeometry relative="1" as="geometry" />
        </mxCell>
      </root>
    </mxGraphModel>
  </diagram>
</mxfile>
